# Blender v2.83.3 OBJ File: ''
# www.blender.org
mtllib pipe_straight.mtl
o Cylinder
v -0.500000 1.000000 0.000000
v 0.000000 1.000000 0.500000
v 0.500000 1.000000 0.000000
v -0.500000 -1.000000 -0.000000
v -0.353553 -1.000000 -0.353553
v 0.353553 -1.000000 0.353553
v 0.353553 1.000000 -0.353553
v 0.000000 1.000000 -0.500000
v -0.353553 1.000000 -0.353553
v -0.353553 1.000000 0.353553
v 0.353553 1.000000 0.353553
v 0.000000 -1.000000 -0.500000
v 0.353553 -1.000000 -0.353553
v 0.500000 -1.000000 -0.000000
v 0.000000 -1.000000 0.500000
v -0.353553 -1.000000 0.353553
vt 0.961078 0.961467
vt 0.845809 0.500389
vt 0.961078 0.500389
vt 0.845809 0.961467
vt 0.730539 0.500389
vt 0.730539 0.961467
vt 0.615269 0.500389
vt 0.615269 0.961467
vt 0.500000 0.500389
vt 0.500000 0.961467
vt 0.384730 0.500389
vt 0.384730 0.961467
vt 0.269461 0.500389
vt 0.269461 0.961467
vt 0.154191 0.500389
vt 0.154191 0.961467
vt 0.038922 0.500389
vt 0.038922 0.961467
vn 0.0000 0.0000 -1.0000
vn 0.7071 0.0000 -0.7071
vn 1.0000 -0.0000 -0.0000
vn 0.7071 -0.0000 0.7071
vn 0.0000 -0.0000 1.0000
vn -0.7071 -0.0000 0.7071
vn -1.0000 0.0000 0.0000
vn -0.7071 0.0000 -0.7071
usemtl None.001
s 1
f 8/1/1 13/2/2 12/3/1
f 7/4/2 14/5/3 13/2/2
f 3/6/3 6/7/4 14/5/3
f 11/8/4 15/9/5 6/7/4
f 2/10/5 16/11/6 15/9/5
f 10/12/6 4/13/7 16/11/6
f 1/14/7 5/15/8 4/13/7
f 9/16/8 12/17/1 5/15/8
f 8/1/1 7/4/2 13/2/2
f 7/4/2 3/6/3 14/5/3
f 3/6/3 11/8/4 6/7/4
f 11/8/4 2/10/5 15/9/5
f 2/10/5 10/12/6 16/11/6
f 10/12/6 1/14/7 4/13/7
f 1/14/7 9/16/8 5/15/8
f 9/16/8 8/18/1 12/17/1
