# Blender v2.83.3 OBJ File: ''
# www.blender.org
mtllib pipe_elbow.mtl
o Cylinder.001
v -0.353554 -0.353553 1.000000
v 0.353553 -0.353554 1.000000
v 0.353553 0.353553 1.000000
v 0.000000 0.500000 1.000000
v -0.353554 0.353553 1.000000
v -0.500000 -0.000000 1.000000
v 0.000000 -0.500000 1.000000
v 0.500000 -0.000000 1.000000
v -0.500000 -1.000000 -0.000000
v -0.353553 -1.000000 -0.353553
v 0.353553 -1.000000 0.353553
v 0.000000 -1.000000 -0.500000
v 0.353553 -1.000000 -0.353553
v 0.500000 -1.000000 -0.000000
v 0.000000 -1.000000 0.500000
v -0.353553 -1.000000 0.353553
v 0.000000 -0.900000 0.500000
v -0.353553 -0.752616 0.402761
v -0.353553 -0.900000 0.353553
v 0.353553 -0.482018 -0.250520
v 0.500000 -0.900000 -0.000000
v 0.353553 -0.900000 -0.353553
v -0.500000 -0.900000 -0.000000
v -0.353553 -0.482018 -0.250520
v -0.353553 -0.900000 -0.353553
v 0.353553 -0.752616 0.402761
v 0.353553 -0.900000 0.353553
v 0.500000 -0.617317 0.076120
v 0.000000 -0.425975 -0.385819
v 0.000000 -0.900000 -0.500000
v 0.500000 -0.292893 0.292893
v 0.000000 0.060660 -0.060660
v 0.353553 0.250520 0.482018
v 0.353553 -0.042893 0.042893
v 0.353553 -0.542893 0.542893
v 0.000000 -0.808658 0.538060
v -0.500000 -0.617317 0.076120
v -0.353553 -0.042893 0.042893
v -0.353553 -0.542893 0.542893
v 0.353553 -0.353553 0.900000
v 0.000000 -0.538060 0.808658
v 0.353553 -0.402761 0.752616
v 0.000000 -0.646447 0.646447
v -0.500000 -0.292893 0.292893
v -0.353553 0.250520 0.482018
v -0.500000 -0.076120 0.617317
v -0.353553 -0.353553 0.900000
v -0.500000 -0.000000 0.900000
v -0.353553 -0.402761 0.752616
v -0.353553 0.353553 0.900000
v 0.000000 0.385819 0.425975
v 0.353553 0.353553 0.900000
v 0.500000 -0.076120 0.617317
v 0.000000 -0.500000 0.900000
v 0.500000 -0.000000 0.900000
v 0.000000 0.500000 0.900000
vt 0.493637 0.716772
vt 0.540701 0.820345
vt 0.488697 0.820345
vt 0.375490 0.484558
vt 0.511168 0.519247
vt 0.447424 0.592484
vt 0.255444 0.146381
vt 0.085737 0.181069
vt 0.157726 0.073145
vt 0.540701 0.613199
vt 0.488697 0.613199
vt 0.296912 0.260348
vt 0.319352 0.219625
vt 0.463990 0.444922
vt 0.608925 0.446010
vt 0.144538 0.777072
vt 0.284564 0.902805
vt 0.154709 0.919551
vt 0.052431 0.785668
vt 0.061109 0.911501
vt 0.439402 0.332815
vt 0.586502 0.405286
vt 0.342209 0.198911
vt 0.739169 0.929408
vt 0.855220 0.765635
vt 0.869025 0.913509
vt 0.617065 0.613199
vt 0.526122 0.716772
vt 0.208229 0.220704
vt 0.052431 0.332811
vt 0.159836 0.613199
vt 0.275887 0.776972
vt 0.066236 0.637794
vt 0.342209 0.332815
vt 0.617065 0.820345
vt 0.281005 0.332819
vt 0.420600 0.613199
vt 0.380137 0.724473
vt 0.368056 0.614733
vt 0.586502 0.260344
vt 0.570607 0.332815
vt 0.289691 0.824012
vt 0.319526 0.729251
vt 0.183623 0.332810
vt 0.085737 0.484555
vt 0.375490 0.181072
vt 0.289691 0.620910
vt 0.208229 0.444918
vt 0.631765 0.756939
vt 0.645569 0.904813
vt 0.319352 0.446014
vt 0.278301 0.539960
vt 0.255444 0.519244
vt 0.296912 0.405290
vt 0.640442 0.631106
vt 0.723871 0.765535
vt 0.863897 0.639802
vt 0.463989 0.220708
vt 0.608925 0.219620
vt 0.420600 0.816300
vt 0.368056 0.817835
vt 0.157726 0.592483
vt 0.447423 0.073146
vt 0.534008 0.539962
vt 0.159836 0.947569
vt 0.066236 0.939519
vt 0.459479 0.716772
vt 0.470263 0.613199
vt 0.585186 0.716772
vt 0.289691 0.629098
vt 0.413090 0.723092
vt 0.454539 0.614060
vt 0.447029 0.723952
vt 0.511168 0.146383
vt 0.470263 0.052431
vt 0.534008 0.125669
vt 0.180584 0.613199
vt 0.454539 0.817161
vt 0.631765 0.198906
vt 0.734042 0.623056
vt 0.739169 0.595038
vt 0.869025 0.611784
vt 0.454539 0.613199
vt 0.278301 0.125667
vt 0.342209 0.466730
vt 0.631765 0.466724
vt 0.289691 0.930823
vt 0.454539 0.820345
vt 0.645569 0.603088
vt 0.180584 0.052431
vn 0.0000 -0.1964 0.9805
vn -0.6948 -0.3179 0.6451
vn -0.7018 -0.1134 0.7033
vn 0.7062 0.2672 -0.6557
vn 0.9969 0.0069 -0.0786
vn 0.6932 0.1211 -0.7105
vn -0.9972 0.0474 -0.0575
vn -0.7108 0.2834 -0.6438
vn -0.7158 0.0888 -0.6927
vn 0.6974 -0.3255 0.6385
vn 0.7233 -0.0776 0.6862
vn 0.9991 0.0423 0.0063
vn -0.0006 0.4010 -0.9161
vn -0.0006 0.1153 -0.9933
vn 0.9996 -0.0139 -0.0228
vn -0.6833 -0.0028 0.7301
vn 0.0000 0.7071 -0.7071
vn 0.7118 0.6424 -0.2841
vn 0.7094 0.4984 -0.4984
vn 0.7182 -0.4724 0.5108
vn 0.0000 -0.4745 0.8803
vn -0.9990 -0.0307 -0.0324
vn -0.7095 0.4983 -0.4983
vn -0.7084 -0.4991 0.4991
vn 0.7074 -0.6992 0.1038
vn -0.0000 -0.8846 0.4664
vn 0.6995 -0.6409 0.3162
vn -0.0000 -0.7071 0.7071
vn -0.9987 -0.0116 -0.0490
vn -0.7118 0.6424 -0.2841
vn -0.9976 0.0635 0.0259
vn -0.7481 -0.6526 0.1197
vn -0.9988 -0.0485 0.0098
vn -0.9998 -0.0160 -0.0088
vn -0.7449 -0.5955 0.3009
vn -0.6772 0.7263 -0.1180
vn 0.0000 0.9158 -0.4016
vn 0.6937 0.7099 -0.1217
vn 0.9998 0.0022 0.0201
vn 0.9988 -0.0098 0.0485
vn -0.0000 0.0000 -1.0000
vn -0.7313 -0.0068 -0.6820
vn 0.0000 0.0000 1.0000
vn 0.7313 -0.0068 -0.6820
vn -0.0000 -0.9786 0.2060
vn 0.6833 -0.7301 0.0028
vn -0.0000 -1.0000 -0.0000
vn 0.9970 0.0779 0.0041
vn 0.7315 0.6818 0.0068
vn 0.9988 -0.0485 0.0098
vn -0.7313 0.6820 0.0068
vn -0.6837 -0.7297 0.0028
vn -0.0000 0.9934 -0.1147
vn -0.0000 1.0000 -0.0000
vn 0.6833 -0.0028 0.7301
vn -0.9988 -0.0098 0.0485
usemtl None
s 1
f 17/1/1 18/2/2 19/3/3
f 20/4/4 21/5/5 22/6/6
f 23/7/7 24/8/8 25/9/9
f 26/10/10 17/1/1 27/11/11
f 18/12/2 23/7/7 19/13/3
f 28/14/12 27/15/11 21/5/5
f 29/16/13 22/17/6 30/18/14
f 24/19/8 30/18/14 25/20/9
f 31/21/15 26/22/10 28/14/12
f 23/7/7 16/23/16 19/13/3
f 32/24/17 33/25/18 34/26/19
f 35/27/20 36/28/21 26/10/10
f 37/29/22 38/30/23 24/8/8
f 32/31/17 20/32/4 29/16/13
f 38/33/23 29/16/13 24/19/8
f 34/34/19 28/14/12 20/4/4
f 36/28/21 39/35/24 18/2/2
f 39/36/24 37/29/22 18/12/2
f 40/37/25 41/38/26 42/39/27
f 31/21/15 42/40/27 35/41/20
f 41/38/26 39/42/24 43/43/28
f 44/44/29 45/45/30 38/30/23
f 33/46/18 31/21/15 34/34/19
f 42/39/27 43/43/28 35/47/20
f 39/36/24 46/48/31 44/44/29
f 45/49/30 32/24/17 38/50/23
f 47/51/32 6/52/33 48/53/34
f 47/51/32 46/48/31 49/54/35
f 50/55/36 51/56/37 45/49/30
f 51/56/37 52/57/38 33/25/18
f 53/58/39 40/59/25 42/40/27
f 41/38/26 47/60/32 49/61/35
f 46/48/31 50/62/36 45/45/30
f 52/63/38 53/58/39 33/46/18
f 17/1/1 36/28/21 18/2/2
f 20/4/4 28/14/12 21/5/5
f 23/7/7 37/29/22 24/8/8
f 26/10/10 36/28/21 17/1/1
f 18/12/2 37/29/22 23/7/7
f 28/14/12 26/22/10 27/15/11
f 29/16/13 20/32/4 22/17/6
f 24/19/8 29/16/13 30/18/14
f 31/21/15 35/41/20 26/22/10
f 27/15/11 14/64/40 21/5/5
f 22/17/6 12/65/41 30/18/14
f 30/18/14 10/66/42 25/20/9
f 19/3/3 15/67/43 17/1/1
f 21/5/5 13/68/44 22/6/6
f 32/24/17 51/56/37 33/25/18
f 35/27/20 43/69/28 36/28/21
f 37/29/22 44/44/29 38/30/23
f 32/31/17 34/70/19 20/32/4
f 38/33/23 32/31/17 29/16/13
f 34/34/19 31/21/15 28/14/12
f 36/28/21 43/69/28 39/35/24
f 39/36/24 44/44/29 37/29/22
f 40/37/25 54/71/45 41/38/26
f 31/21/15 53/58/39 42/40/27
f 41/38/26 49/61/35 39/42/24
f 44/44/29 46/48/31 45/45/30
f 33/46/18 53/58/39 31/21/15
f 42/39/27 41/38/26 43/43/28
f 39/36/24 49/54/35 46/48/31
f 45/49/30 51/56/37 32/24/17
f 54/71/45 2/72/46 7/73/47
f 55/74/48 3/75/49 8/76/50
f 48/53/34 5/77/51 50/62/36
f 47/60/32 7/73/47 1/78/52
f 40/59/25 8/76/50 2/79/46
f 47/51/32 48/53/34 46/48/31
f 50/55/36 56/80/53 51/56/37
f 51/56/37 56/80/53 52/57/38
f 53/58/39 55/74/48 40/59/25
f 41/38/26 54/71/45 47/60/32
f 46/48/31 48/53/34 50/62/36
f 52/63/38 55/74/48 53/58/39
f 50/55/36 4/81/54 56/80/53
f 56/80/53 3/82/49 52/57/38
f 17/1/1 11/83/55 27/11/11
f 25/9/9 9/84/56 23/7/7
f 23/7/7 9/84/56 16/23/16
f 47/51/32 1/85/52 6/52/33
f 27/15/11 11/86/55 14/64/40
f 22/17/6 13/87/44 12/65/41
f 30/18/14 12/65/41 10/66/42
f 19/3/3 16/88/16 15/67/43
f 21/5/5 14/64/40 13/68/44
f 54/71/45 40/37/25 2/72/46
f 55/74/48 52/63/38 3/75/49
f 48/53/34 6/52/33 5/77/51
f 47/60/32 54/71/45 7/73/47
f 40/59/25 55/74/48 8/76/50
f 50/55/36 5/89/51 4/81/54
f 56/80/53 4/81/54 3/82/49
f 17/1/1 15/67/43 11/83/55
f 25/9/9 10/90/42 9/84/56
